# xmcd
#
# Track frame offsets:
#	150
#	1112
#	17704
#	35020
#	57467
#	73172
#	95003
#	97411
#	113232
#	131308
#	139138
#
# Disc length: 2379 seconds
#
# Revision: 0
# Processed by: cddbd v1.5.1PL0 Copyright (c) Steve Scherf et al.
# Submitted via: dBpowerAMP V4.0
#
DISCID=9c09490b
DTITLE=Charlemagne - Charlemagne
DYEAR=2004
DGENRE=country
TTITLE0=behold ! charlemagne
TTITLE1=prisoner of
TTITLE2=two steps ahead
TTITLE3=in absentis
TTITLE4=dawn upon
TTITLE5=august evenings
TTITLE6=go natives
TTITLE7=holland daisy
TTITLE8=how could he ?
TTITLE9=champagne chin
TTITLE10=portrait with no shortage of history
EXTD=If you like the music, buy the cd.
EXTT0=
EXTT1=
EXTT2=
EXTT3=
EXTT4=
EXTT5=
EXTT6=
EXTT7=
EXTT8=
EXTT9=
EXTT10=
PLAYORDER=
